<?xml version="1.0"?><svg xmlns="http://www.w3.org/2000/svg" width="680" height="680" viewBox="0 0 680 680" fill="none" version="1.2" baseProfile="tiny-ps"><title>Global Forester</title><rect width="680" height="680" fill="#EFEFEF"/><rect width="9434" height="820" transform="translate(-4762 -70)" fill="white"/><rect x="-19.5" y="-19.5" width="1959" height="719" rx="4.5" stroke="#9747FF" stroke-dasharray="10 5"/><rect width="680" height="680" fill="#348D64"/><path d="M428.34 339.07L505.521 294.435L340 102.878L174.479 294.435L251.66 339.07L174.479 384.635L340 577.122L505.521 385.565L428.34 339.07ZM344.649 377.192V121.475L492.502 291.645L344.649 377.192ZM260.959 344.65L317.679 377.192L339.996 391.14L358.596 379.981L419.969 344.645L490.641 385.56L339.999 472.97L190.287 384.635L260.959 344.65ZM344.649 556.665V479.484L477.624 402.303L344.649 556.665Z" fill="white"/></svg>
